<svg xml:space="preserve" style="enable-background:new 0 0 3000 3000;" viewBox="0 0 3000 3000" y="0px" x="0px" xmlns:xlink="http://www.w3.org/1999/xlink" xmlns="http://www.w3.org/2000/svg" id="Laag_1" version="1.1">
<style type="text/css">
	.st0{fill:#FFFFFF;}
</style>
<g>
	<path d="M1206.8,1182.8L1994,1044V596.8c0-110.9-89.9-184.9-200.8-165.4L244.4,704.5
		C133.5,724.1,43.6,829.8,43.6,940.7v984.2c0,110.9,89.9,184.9,200.8,165.4L1006,1956v-537C1006,1308.1,1095.9,1202.4,1206.8,1182.8" class="st0"></path>
	<path d="M2755.6,909.7L1994,1044v537c0,110.9-89.9,216.7-200.8,236.2L1006,1956v447.2c0,110.9,89.9,184.9,200.8,165.4
		l1548.8-273.1c110.9-19.6,200.8-125.3,200.8-236.2v-984.2C2956.4,964.2,2866.5,890.2,2755.6,909.7" class="st0"></path>
</g>
</svg>
